<svg width="236" height="42" viewBox="0 0 236 42" fill="none" xmlns="http://www.w3.org/2000/svg">
<path d="M8.10488 41.85L13.4549 25.95L0.554883 17.3H16.3549L22.0049 0.249997L27.7549 17.3H43.4549L30.5549 25.95L36.0049 41.85L22.0049 31.7L8.10488 41.85ZM56.1029 41.85L61.4529 25.95L48.5529 17.3H64.3529L70.0029 0.249997L75.7529 17.3H91.4529L78.5529 25.95L84.0029 41.85L70.0029 31.7L56.1029 41.85ZM104.101 41.85L109.451 25.95L96.551 17.3H112.351L118.001 0.249997L123.751 17.3H139.451L126.551 25.95L132.001 41.85L118.001 31.7L104.101 41.85ZM152.099 41.85L157.449 25.95L144.549 17.3H160.349L165.999 0.249997L171.749 17.3H187.449L174.549 25.95L179.999 41.85L165.999 31.7L152.099 41.85ZM200.097 41.85L205.447 25.95L192.547 17.3H208.347L213.997 0.249997L219.747 17.3H235.447L222.547 25.95L227.997 41.85L213.997 31.7L200.097 41.85Z" fill="white"/>
</svg>
